<svg xmlns="http://www.w3.org/2000/svg" viewBox="0 -0.5 60 17" shape-rendering="crispEdges">
<metadata>Made with Pixels to Svg https://codepen.io/shshaw/pen/XbxvNj</metadata>
<path stroke="#208ed9" d="M2 1h6M22 1h6M32 1h6M42 1h6M52 1h6M1 2h1M3 2h4M8 2h1M11 2h1M21 2h1M23 2h4M33 2h4M38 2h1M43 2h4M48 2h1M51 2h1M53 2h4M58 2h1M1 3h2M7 3h2M11 3h2M21 3h2M37 3h2M47 3h2M51 3h2M57 3h2M1 4h2M7 4h2M11 4h2M21 4h2M37 4h2M47 4h2M51 4h2M57 4h2M1 5h2M7 5h2M11 5h2M21 5h2M37 5h2M47 5h2M51 5h2M57 5h2M1 6h2M7 6h2M11 6h2M21 6h2M37 6h2M47 6h2M51 6h2M57 6h2M1 7h1M8 7h1M11 7h1M21 7h1M23 7h4M33 7h4M38 7h1M48 7h1M51 7h1M58 7h1M22 8h6M32 8h6M1 9h1M8 9h1M11 9h1M21 9h1M23 9h4M33 9h4M38 9h1M48 9h1M51 9h1M58 9h1M1 10h2M7 10h2M11 10h2M21 10h2M37 10h2M47 10h2M51 10h2M57 10h2M1 11h2M7 11h2M11 11h2M21 11h2M37 11h2M47 11h2M51 11h2M57 11h2M1 12h2M7 12h2M11 12h2M21 12h2M37 12h2M47 12h2M51 12h2M57 12h2M1 13h2M7 13h2M11 13h2M21 13h2M37 13h2M47 13h2M51 13h2M57 13h2M1 14h1M3 14h4M8 14h1M11 14h1M13 14h4M21 14h1M23 14h4M33 14h4M38 14h1M48 14h1M51 14h1M53 14h4M58 14h1M2 15h6M12 15h6M22 15h6M32 15h6M52 15h6" />
<path stroke="#cfbfcf" d="M12 1h6M13 2h4M18 2h1M28 2h1M31 2h1M41 2h1M17 3h2M27 3h2M31 3h2M41 3h2M17 4h2M27 4h2M31 4h2M41 4h2M17 5h2M27 5h2M31 5h2M41 5h2M17 6h2M27 6h2M31 6h2M41 6h2M3 7h4M13 7h4M18 7h1M28 7h1M31 7h1M41 7h1M43 7h4M53 7h4M2 8h6M12 8h6M42 8h6M52 8h6M3 9h4M13 9h4M18 9h1M28 9h1M31 9h1M41 9h1M43 9h4M53 9h4M17 10h2M27 10h2M31 10h2M41 10h2M17 11h2M27 11h2M31 11h2M41 11h2M17 12h2M27 12h2M31 12h2M41 12h2M17 13h2M27 13h2M31 13h2M41 13h2M18 14h1M28 14h1M31 14h1M41 14h1M43 14h4M42 15h6" />
<path stroke="#46a0d8" d="M2 2h1M7 2h1M22 2h1M37 2h1M47 2h1M52 2h1M57 2h1M2 7h1M7 7h1M12 7h1M22 7h1M37 7h1M47 7h1M52 7h1M57 7h1M1 8h1M8 8h1M11 8h1M21 8h1M38 8h1M48 8h1M51 8h1M58 8h1M2 9h1M7 9h1M12 9h1M22 9h1M37 9h1M47 9h1M52 9h1M57 9h1M2 14h1M7 14h1M12 14h1M22 14h1M37 14h1M52 14h1M57 14h1" />
</svg>